<?xml version="1.0" encoding="utf-8"?>
<!-- Generator: Adobe Illustrator 16.0.4, SVG Export Plug-In . SVG Version: 6.00 Build 0)  -->
<!DOCTYPE svg PUBLIC "-//W3C//DTD SVG 1.1//EN" "http://www.w3.org/Graphics/SVG/1.1/DTD/svg11.dtd">
<svg version="1.1" id="Layer_1" xmlns="http://www.w3.org/2000/svg" xmlns:xlink="http://www.w3.org/1999/xlink" x="0px" y="0px"
	 width="197.999px" height="84.667px" viewBox="199.833 330.5 197.999 84.667"
	 enable-background="new 199.833 330.5 197.999 84.667" xml:space="preserve">
<g>
	<path fill="#FFFFFF" d="M232.668,405.659c0-0.077,0-0.154,0.078-0.231c0.077,0,0.231,0,0.463,0c0.309,0,0.618-0.078,0.85-0.232
		c0.541-0.386,0.773-1.082,0.773-2.318c0-1.777-0.773-3.014-2.086-3.014c-0.078,0-0.309,0-0.464,0.078c0,0-0.077,0.154-0.077,0.231
		c0,0.618,0,1.7,0,4.25c0,1.005,0,3.399,0,4.481c0,0.464,0.077,0.851,0.463,0.928c0.309,0.154,0.618,0.154,1.082,0.231
		c0.077,0.077,0,0.541-0.077,0.618c-0.696,0-1.777-0.077-2.627-0.077s-1.777,0.077-2.627,0.077c-0.077-0.154-0.077-0.618,0-0.618
		c0.309-0.077,0.618-0.077,0.85-0.154c0.386-0.077,0.464-0.464,0.464-1.005c0-0.772,0-2.009,0-4.327c0-2.009,0-3.091,0-3.632
		c0-0.618-0.078-0.927-0.541-1.082c-0.232-0.077-0.464-0.077-0.773-0.154c-0.077-0.154,0-0.541,0-0.618
		c0.464,0,1.391,0.077,2.241,0.077c1.236,0,2.009,0,3.245,0c0.464,0,1.468,0.077,2.164,0.618c0.618,0.464,1.082,1.392,1.082,2.705
		c0,1.545-0.695,2.55-1.391,3.091c-0.618,0.464-1.391,0.695-2.086,0.695c-0.309,0-0.541-0.077-0.773-0.077
		C232.823,406.123,232.746,405.736,232.668,405.659z"/>
	<path fill="#FFFFFF" d="M245.032,406.818c0,1.623-0.541,2.781-1.468,3.478c-0.541,0.386-1.468,0.695-2.241,0.695
		c-2.473,0-3.632-1.854-3.632-4.173c0-1.469,0.618-2.627,1.468-3.323c0.541-0.386,1.391-0.772,2.318-0.772
		C243.718,402.8,245.032,404.577,245.032,406.818z M240.627,403.728c-0.464,0.386-0.618,1.081-0.618,2.55
		c0,2.627,0.695,3.94,1.545,3.94c0.231,0,0.386-0.077,0.541-0.231c0.386-0.387,0.541-1.236,0.541-2.704
		c0-2.318-0.541-3.787-1.545-3.787C240.937,403.572,240.782,403.65,240.627,403.728z"/>
	<path fill="#FFFFFF" d="M251.523,403.341c0,0.077,0,0.31,0,0.387c0,0.309-0.464,1.391-0.696,1.777
		c-0.077,0.077-0.231,0.077-0.231,0.077c-0.31-0.464-0.85-0.773-1.314-0.773c-0.154,0-0.309,0-0.463,0.155
		c-0.078,0-0.078,0.154-0.078,0.309c0,1.005,0,3.632,0,3.864c0,0.541,0.078,0.772,0.464,0.85c0.232,0.077,0.541,0.154,0.85,0.154
		c0,0.077,0,0.541-0.078,0.618c-0.386,0-1.159-0.077-2.395-0.077c-0.773,0-1.468,0.077-1.932,0.077c0-0.154-0.077-0.618,0-0.618
		c0.232-0.077,0.464-0.077,0.618-0.154c0.155-0.077,0.232-0.231,0.232-0.618s0.077-1.777,0-2.937c0-0.618,0-1.236,0-1.545
		c0-0.232-0.077-0.464-0.85-0.773c0-0.154,0-0.463,0.077-0.541c0.618-0.077,2.086-0.386,2.782-0.85c0.077,0,0.077,0.077,0.154,0.154
		c0,0.232-0.077,1.236-0.077,1.469c0,0.077,0.077,0.077,0.077,0c0.309-0.387,0.618-0.773,0.927-1.082
		c0.232-0.231,0.618-0.464,0.927-0.464C251.059,402.8,251.445,403.032,251.523,403.341z"/>
	<path fill="#FFFFFF" d="M255.077,404.191c0,0-0.077,0.077-0.077,0.154c0,0.695,0,2.086,0,3.014c0,0.695,0,1.082,0.077,1.468
		c0.077,0.387,0.309,0.772,0.85,0.772c0.309,0,0.618-0.077,0.85-0.231c0,0.077,0,0.464,0,0.695
		c-0.464,0.695-1.236,1.082-2.009,1.082c-0.772,0-1.391-0.31-1.7-0.928c-0.232-0.54-0.232-1.004-0.232-2.163
		c0-0.928,0-2.705,0-3.478c0-0.077,0-0.154-0.077-0.154c-0.232,0-0.541,0-0.773-0.077c0-0.154,0.077-0.618,0.155-0.773
		c0.231-0.077,0.541-0.154,0.695-0.231c0,0,0.077-0.077,0.077-0.154c0-0.154,0-1.236,0-1.623c0.541-0.154,1.545-0.772,1.854-1.005
		c0.078,0,0.309-0.077,0.386,0c-0.077,0.464-0.077,1.392-0.077,2.628c0,0.077,0,0.154,0.077,0.154c0.31,0,1.314-0.077,1.777-0.077
		c-0.077,0.309-0.154,0.928-0.154,1.236C256.159,404.191,255.618,404.191,255.077,404.191z"/>
	<path fill="#FFFFFF" d="M263.5,408.596c0,0.154-0.077,0.541-0.077,0.618c-0.696,1.004-1.932,1.777-3.014,1.777
		c-1.005,0-1.7-0.387-2.164-0.928c-0.696-0.772-1.005-2.009-1.005-3.168c0-1.546,0.696-2.782,1.545-3.478
		c0.541-0.386,1.314-0.618,2.009-0.618c1.854,0,2.473,1.7,2.627,2.782c0,0.154,0.154,0.231,0.231,0.309
		c0,0.077-0.077,0.464-0.077,0.541c-0.463,0.154-2.936,0.387-4.095,0.387l-0.078,0.154c0,0.541,0.232,1.082,0.618,1.546
		c0.387,0.463,0.85,0.695,1.546,0.695c0.695,0,1.236-0.155,1.854-0.772C263.423,408.519,263.5,408.596,263.5,408.596z
		 M259.327,405.813c0,0,0,0.077,0.077,0.077c0.387,0,1.468,0,1.777-0.077c0.078,0,0.078-0.077,0.078-0.154
		c-0.078-1.236-0.387-2.087-1.005-2.087S259.327,404.5,259.327,405.813z"/>
	<path fill="#FFFFFF" d="M269.836,403.341c0,0.077,0,0.31,0,0.387c0,0.309-0.464,1.391-0.695,1.777
		c-0.078,0.077-0.232,0.077-0.232,0.077c-0.309-0.464-0.85-0.773-1.313-0.773c-0.155,0-0.31,0-0.464,0.155
		c-0.077,0-0.077,0.154-0.077,0.309c0,1.005,0,3.632,0,3.864c0,0.541,0.077,0.772,0.463,0.85c0.232,0.077,0.541,0.154,0.85,0.154
		c0,0.077,0,0.541-0.077,0.618c-0.387,0-1.159-0.077-2.396-0.077c-0.773,0-1.468,0.077-1.932,0.077c0-0.154-0.078-0.618,0-0.618
		c0.231-0.077,0.463-0.077,0.618-0.154c0.154-0.077,0.231-0.231,0.231-0.618s0.078-1.777,0-2.937c0-0.618,0-1.236,0-1.545
		c0-0.232-0.077-0.464-0.85-0.773c0-0.154,0-0.463,0.077-0.541c0.618-0.077,2.086-0.386,2.782-0.85c0.077,0,0.077,0.077,0.154,0.154
		c0,0.232-0.077,1.236-0.077,1.469c0,0.077,0.077,0.077,0.077,0c0.309-0.387,0.618-0.773,0.927-1.082
		c0.232-0.231,0.618-0.464,0.928-0.464C269.373,402.8,269.682,403.032,269.836,403.341z"/>
	<path fill="#FFFFFF" d="M272.927,399.091c1.236,0,2.396,0.077,3.941,0.077c0,0.387,0.155,0.851,0.309,1.236
		c0.618,1.7,1.854,4.868,2.318,5.873h0.077c0.463-1.005,1.854-4.56,2.396-5.95c0.154-0.386,0.309-0.85,0.309-1.159
		c1.854,0,2.627-0.077,3.632-0.077c0.077,0,0.077,0.618,0,0.618c-0.464,0.077-0.773,0.154-1.004,0.232
		c-0.387,0.154-0.464,0.463-0.464,1.004c0,1.391,0.077,6.568,0.155,7.959c0,0.464,0.077,0.928,0.541,1.082
		c0.232,0.077,0.541,0.154,0.927,0.231c0.078,0.077,0,0.541-0.077,0.618c-0.541,0-1.159-0.077-2.782-0.077
		c-0.927,0-1.623,0.077-2.318,0.077c-0.077-0.077-0.077-0.618,0-0.618c0.387-0.077,0.618-0.154,0.85-0.231s0.309-0.387,0.309-0.928
		c0-1.545,0-5.1,0-6.954h-0.077c-0.773,1.932-2.705,7.032-3.168,8.654c-0.077,0.077-0.695,0.077-0.772,0
		c-0.386-1.545-1.468-4.559-2.937-8.654c0,0-0.077,0-0.077,0.077c-0.077,1.469-0.309,5.409-0.309,6.723
		c0,0.695,0.077,0.928,0.618,1.159c0.309,0.077,0.541,0.154,1.082,0.231c0.077,0.078,0,0.541,0,0.619
		c-0.541,0-1.159-0.078-2.241-0.078c-0.618,0-1.313,0.078-1.932,0.078c-0.077-0.078-0.077-0.619,0-0.619
		c0.309-0.077,0.618-0.077,0.85-0.154c0.463-0.154,0.695-0.386,0.772-1.236c0.155-1.468,0.541-6.259,0.541-7.728
		c0-0.386-0.077-0.772-0.386-0.927s-0.696-0.231-1.159-0.31C272.772,399.632,272.85,399.091,272.927,399.091z"/>
	<path fill="#FFFFFF" d="M292.632,408.596c0,0.154-0.077,0.541-0.077,0.618c-0.696,1.004-1.932,1.777-3.014,1.777
		c-1.005,0-1.7-0.387-2.164-0.928c-0.696-0.772-1.005-2.009-1.005-3.168c0-1.546,0.696-2.782,1.545-3.478
		c0.541-0.386,1.314-0.618,1.932-0.618c1.854,0,2.473,1.7,2.627,2.782c0,0.154,0.154,0.231,0.231,0.309
		c0,0.077-0.077,0.464-0.077,0.541c-0.464,0.154-2.937,0.387-4.096,0.387l-0.077,0.154c0,0.541,0.232,1.082,0.618,1.546
		c0.387,0.463,0.85,0.695,1.545,0.695c0.696,0,1.236-0.155,1.854-0.772C292.555,408.519,292.632,408.596,292.632,408.596z
		 M288.382,405.813c0,0,0,0.077,0.077,0.077c0.387,0,1.468,0,1.777-0.077c0.077,0,0.077-0.077,0.077-0.154
		c-0.077-1.236-0.386-2.087-1.004-2.087C288.768,403.572,288.382,404.5,288.382,405.813z"/>
	<path fill="#FFFFFF" d="M301.286,410.218c-0.695,0.387-2.55,0.851-2.859,0.851c0,0-0.077-0.077-0.155-0.154
		c0-0.155,0-0.618,0-0.928c0,0-0.077-0.077-0.077,0c-0.695,0.618-1.623,1.005-2.164,1.005c-0.772,0-1.313-0.387-1.777-1.005
		c-0.463-0.618-0.772-1.7-0.772-2.782c0-1.313,0.541-2.55,1.313-3.168c0.695-0.618,2.009-1.159,3.014-1.159c0.077,0,0.309,0,0.463,0
		c0,0,0.078,0,0.078-0.077c0-0.85,0-2.086-0.078-2.627c0-0.31-0.077-0.618-0.309-0.772c-0.232-0.078-0.541-0.155-0.85-0.232
		c-0.078-0.077,0-0.618,0.077-0.618c0.927,0,2.782-0.309,3.4-0.618c0.077,0,0.077,0.232,0.077,0.31
		c-0.154,0.309-0.154,0.618-0.231,2.086c0,1.159,0,2.627,0,5.178c0,0.618,0,2.317,0,3.091c0,0.618,0.077,0.772,0.309,0.772
		c0.154,0,0.309,0,0.695,0C301.441,409.678,301.364,410.218,301.286,410.218z M296.109,404.036c-0.309,0.387-0.463,1.005-0.463,2.01
		c0,2.086,0.772,3.399,1.932,3.399c0.155,0,0.387,0,0.541-0.154c0.077-0.077,0.077-0.154,0.155-0.387c0-0.618,0-2.781,0-3.863
		c0-0.541-0.155-0.85-0.464-1.082c-0.309-0.231-0.618-0.387-0.927-0.387C296.65,403.65,296.341,403.728,296.109,404.036z"/>
	<path fill="#FFFFFF" d="M305.614,410.836c-0.309,0-0.927-0.077-2.009-0.077c-0.927,0-1.545,0.077-1.932,0.077
		c-0.078-0.077-0.078-0.618,0-0.618c0.231-0.077,0.463-0.077,0.618-0.154c0.231-0.077,0.231-0.309,0.309-0.772
		c0-0.387,0-1.623,0-2.55c0-0.618,0-1.392,0-1.777c0-0.154,0-0.387-0.078-0.464c-0.077-0.154-0.231-0.231-0.618-0.464
		c-0.077-0.077,0-0.541,0-0.618c0.387,0,2.086-0.309,2.937-0.695c0,0.772,0,2.164,0,3.245c0,1.005,0,2.241,0,3.169
		c0,0.618,0.077,0.695,0.309,0.772c0.077,0,0.309,0.077,0.618,0.154C305.691,410.296,305.691,410.759,305.614,410.836z
		 M304.223,401.486c-0.154,0.154-1.004,0.231-1.236,0.154c-0.309-0.154-0.464-0.463-0.541-0.85
		c-0.077-0.231-0.077-0.772,0.077-0.928c0.232-0.231,0.773-0.463,1.237-0.463c0.386,0,0.695,0.154,0.772,0.231
		c0.077,0.154,0.155,0.618,0.155,0.772C304.687,400.714,304.532,401.178,304.223,401.486z"/>
	<path fill="#FFFFFF" d="M309.478,410.991c-1.082,0-1.854-0.464-2.473-1.313c-0.464-0.696-0.696-1.7-0.696-2.705
		c0-1.236,0.619-2.627,1.623-3.322c0.541-0.387,1.623-0.851,2.473-0.851c0.695,0,1.082,0.077,1.392,0.232
		c0.077,0.077,0.463,0.231,0.54,0.54c0,0.078,0,0.232,0,0.387c-0.154,0.387-0.54,1.005-0.772,1.159c-0.077,0-0.231,0-0.231,0
		c-0.31-0.387-1.005-1.468-1.777-1.468c-0.695,0-1.236,0.85-1.236,2.396c0,0.772,0.154,1.545,0.541,2.163
		c0.541,0.85,1.159,1.005,1.777,1.005c0.541,0,1.159-0.155,1.777-0.772c0,0,0.077,0.077,0.077,0.154c0,0.154,0,0.618-0.077,0.695
		C311.563,410.604,310.404,410.991,309.478,410.991z"/>
	<path fill="#FFFFFF" d="M316.354,404.809c-0.231-0.386-0.695-0.617-1.082-0.617c-0.386,0-0.695,0.077-0.772,0.231
		c-0.154,0.154-0.464,0.927-0.541,1.159c-0.077,0.077-0.618-0.232-0.618-0.31c0-0.154,0.231-1.159,0.31-1.236
		c0.85-0.695,2.086-1.236,2.55-1.236c0.85,0,1.545,0.541,1.932,1.159c0.309,0.618,0.387,1.313,0.387,1.932c0,0.928,0,2.164,0,2.937
		c0,0.387,0.077,0.772,0.463,0.772c0.155,0,0.31,0,0.541-0.077c0,0.077,0,0.695-0.077,0.773c-0.464,0.463-1.236,0.772-1.777,0.772
		s-0.927-0.232-1.004-0.618c0-0.077-0.078-0.232-0.078-0.31h-0.077c-0.772,0.618-1.545,0.928-1.854,0.928
		c-0.386,0-0.695-0.154-1.004-0.464c-0.387-0.464-0.618-1.159-0.618-1.932c0-0.231,0.154-0.928,0.309-1.159
		c0.464-0.31,2.55-0.928,3.091-1.236c0.077,0,0.077-0.154,0.154-0.231c0-0.155,0-0.155,0-0.232
		C316.664,405.428,316.586,405.118,316.354,404.809z M316.586,406.896c-0.386,0.154-1.236,0.464-1.391,0.618
		c-0.077,0.077-0.154,0.464-0.154,0.618c0,1.005,0.541,1.391,1.082,1.391c0.154,0,0.309,0,0.386-0.077s0.077-0.154,0.077-0.387
		c0-0.617,0-1.776,0-2.086V406.896z"/>
	<path fill="#FFFFFF" d="M319.832,410.218c0.231-0.077,0.386-0.077,0.618-0.154c0.231-0.077,0.231-0.386,0.309-0.927
		c0-0.695,0-3.323,0-4.482c0-2.55,0-3.632-0.077-4.559c0-0.154-0.077-0.387-0.231-0.464c-0.155-0.077-0.464-0.154-0.695-0.154
		c-0.077-0.077-0.077-0.464,0-0.618c0.85-0.077,2.627-0.464,3.168-0.695c0.077,0,0.154,0.154,0.154,0.309
		c-0.154,0.31-0.154,0.85-0.154,1.7c0,0.927,0,2.859,0,4.636c0,2.241,0,3.787,0,4.637c0,0.541,0.077,0.618,0.386,0.772
		c0.155,0.078,0.31,0.155,0.541,0.155c0,0.077,0,0.541-0.077,0.618c-0.231,0-0.85-0.077-2.086-0.077
		c-1.005,0-1.546,0.077-1.777,0.077C319.755,410.759,319.678,410.296,319.832,410.218z"/>
	<path fill="#FFFFFF" d="M334.978,400.096c-0.618-0.387-1.236-0.464-1.932-0.464c-1.777,0-2.937,1.546-2.937,5.1
		c0,2.628,1.004,5.409,3.632,5.409c0.463,0,1.081-0.077,1.622-0.618c0.387-0.386,0.851-1.159,1.236-1.932
		c0.155,0,0.387,0.231,0.464,0.387c-0.231,0.772-0.85,2.318-1.313,2.704c-0.541,0.154-1.236,0.464-2.473,0.464
		c-3.709,0-5.873-2.087-5.873-6.259c0-2.164,0.851-4.173,2.705-5.255c0.85-0.541,2.009-0.772,3.322-0.772s2.627,0.309,3.323,0.309
		c-0.077,0.618-0.232,2.164-0.232,3.246c-0.077,0.077-0.541,0.154-0.618,0.077C335.673,401.255,335.596,400.559,334.978,400.096z"/>
	<path fill="#FFFFFF" d="M344.019,408.596c0,0.154-0.077,0.541-0.077,0.618c-0.696,1.004-1.933,1.777-3.014,1.777
		c-1.005,0-1.7-0.387-2.164-0.928c-0.695-0.772-1.005-2.009-1.005-3.168c0-1.546,0.618-2.782,1.546-3.478
		c0.541-0.386,1.313-0.618,1.932-0.618c1.854,0,2.473,1.7,2.627,2.782c0,0.154,0.155,0.231,0.232,0.309
		c0,0.077-0.077,0.464-0.077,0.541c-0.464,0.154-2.937,0.387-4.096,0.387l-0.077,0.154c0,0.541,0.231,1.082,0.618,1.546
		c0.386,0.463,0.85,0.695,1.545,0.695s1.236-0.155,1.854-0.772C344.019,408.519,344.019,408.596,344.019,408.596z M339.846,405.813
		c0,0,0,0.077,0.077,0.077c0.386,0,1.468,0,1.777-0.077c0.077,0,0.077-0.077,0.077-0.154c-0.077-1.236-0.387-2.087-1.005-2.087
		C340.231,403.572,339.846,404.5,339.846,405.813z"/>
	<path fill="#FFFFFF" d="M345.1,410.063c0.232-0.077,0.31-0.309,0.31-0.772c0-0.618,0-2.087,0-2.937c0-0.464,0-1.313,0-1.468
		c0-0.155-0.077-0.464-0.772-0.695c0-0.155,0-0.464,0.077-0.619c1.004-0.154,2.163-0.54,2.781-0.85c0,0,0.077,0.077,0.077,0.154
		c0,0.155,0,0.773,0,1.082c0,0.077,0.078,0.077,0.078,0.077c0.772-0.695,1.545-1.159,2.086-1.159c0.772,0,1.313,0.387,1.7,1.005
		c0.309,0.618,0.464,1.391,0.464,2.241c0,1.159,0,2.781,0,3.399c0,0.155,0.077,0.31,0.154,0.31c0.231,0.154,0.464,0.309,0.772,0.309
		c0.077,0.077,0,0.541-0.077,0.618c-0.231,0-0.772-0.077-1.854-0.077c-0.928,0-1.236,0-1.854,0.077
		c-0.077-0.154-0.077-0.618,0-0.618c0.231-0.077,0.309-0.077,0.464-0.154c0.231-0.077,0.231-0.231,0.309-0.541
		c0-0.618,0.077-3.245-0.077-4.096c-0.077-0.386-0.231-0.695-0.464-0.927c-0.231-0.154-0.463-0.231-0.695-0.231
		c-0.154,0-0.541,0.077-0.772,0.231c-0.077,0.077-0.154,0.231-0.154,0.309c0,1.236,0,3.4,0,4.482c0,0.541,0.154,0.618,0.386,0.695
		c0.155,0.077,0.232,0.077,0.464,0.154c0.077,0.077,0,0.541,0,0.618c-0.618,0-1.236-0.077-1.932-0.077c-1.082,0-1.469,0-1.854,0.077
		c-0.077-0.154-0.077-0.541,0-0.618C344.791,410.141,344.945,410.141,345.1,410.063z"/>
	<path fill="#FFFFFF" d="M356.15,404.191c0,0-0.078,0.077-0.078,0.154c0,0.695,0,2.086,0,3.014c0,0.695,0,1.082,0.078,1.468
		c0.077,0.387,0.309,0.772,0.85,0.772c0.309,0,0.618-0.077,0.85-0.231c0,0.077,0,0.464,0,0.695
		c-0.463,0.695-1.236,1.082-2.009,1.082s-1.391-0.31-1.7-0.928c-0.231-0.54-0.231-1.004-0.231-2.163c0-0.928,0-2.705,0-3.478
		c0-0.077,0-0.154-0.077-0.154c-0.232,0-0.541,0-0.773-0.077c0-0.154,0.078-0.618,0.155-0.773c0.231-0.077,0.541-0.154,0.618-0.231
		c0,0,0.077-0.077,0.077-0.154c0-0.154,0-1.236,0-1.623c0.541-0.154,1.545-0.772,1.854-1.005c0.077,0,0.309-0.077,0.387,0
		c-0.078,0.464-0.078,1.392-0.078,2.628c0,0.077,0,0.154,0.078,0.154c0.309,0,1.313-0.077,1.777-0.077
		c-0.078,0.309-0.155,0.928-0.155,1.236C357.231,404.191,356.691,404.191,356.15,404.191z"/>
	<path fill="#FFFFFF" d="M364.572,408.596c0,0.154-0.077,0.541-0.077,0.618c-0.695,1.004-1.932,1.777-3.014,1.777
		c-1.004,0-1.699-0.387-2.163-0.928c-0.695-0.772-1.005-2.009-1.005-3.168c0-1.546,0.618-2.782,1.546-3.478
		c0.541-0.386,1.313-0.618,1.932-0.618c1.854,0,2.473,1.7,2.627,2.782c0,0.154,0.154,0.231,0.232,0.309
		c0,0.077-0.078,0.464-0.078,0.541c-0.463,0.154-2.936,0.387-4.095,0.387l-0.077,0.154c0,0.541,0.231,1.082,0.618,1.546
		c0.386,0.463,0.85,0.695,1.545,0.695s1.236-0.155,1.854-0.772C364.495,408.519,364.572,408.596,364.572,408.596z M360.4,405.813
		c0,0,0,0.077,0.077,0.077c0.386,0,1.468,0,1.777-0.077c0.077,0,0.077-0.077,0.077-0.154c-0.077-1.236-0.387-2.087-1.005-2.087
		S360.4,404.5,360.4,405.813z"/>
	<path fill="#FFFFFF" d="M370.909,403.341c0,0.077,0,0.31,0,0.387c0,0.309-0.464,1.391-0.695,1.777
		c-0.077,0.077-0.232,0.077-0.232,0.077c-0.309-0.464-0.85-0.773-1.313-0.773c-0.154,0-0.309,0-0.464,0.155
		c-0.077,0-0.077,0.154-0.077,0.309c0,1.005,0,3.632,0,3.864c0,0.541,0.077,0.772,0.464,0.85c0.231,0.077,0.541,0.154,0.851,0.154
		c0,0.077,0,0.541-0.078,0.618c-0.386,0-1.159-0.077-2.396-0.077c-0.772,0-1.468,0.077-1.932,0.077c0-0.154-0.077-0.618,0-0.618
		c0.232-0.077,0.464-0.077,0.618-0.154s0.232-0.231,0.232-0.618s0.077-1.777,0-2.937c0-0.618,0-1.236,0-1.545
		c0-0.232-0.078-0.464-0.851-0.773c0-0.154,0-0.463,0.077-0.541c0.618-0.077,2.087-0.386,2.782-0.85
		c0.077,0,0.077,0.077,0.154,0.154c0,0.232-0.077,1.236-0.077,1.469c0,0.077,0.077,0.077,0.077,0
		c0.31-0.387,0.618-0.773,0.928-1.082c0.231-0.231,0.618-0.464,0.927-0.464C370.445,402.8,370.832,403.032,370.909,403.341z"/>
</g>
<g>
	<g>
		<g>
			<polygon fill="#FFFFFF" points="395.096,388.659 299.045,389.509 202.996,388.659 299.045,387.655 			"/>
		</g>
	</g>
</g>
<g>
	<polygon fill="#FFFFFF" points="285.445,337.659 202.996,336.886 285.445,335.959 	"/>
	<polygon fill="#FFFFFF" points="312.723,337.659 395.096,336.886 312.723,335.959 	"/>
</g>
<g>
	<g>
		<path fill="#FFFFFF" d="M290.7,334.259h-2.086v-0.618h4.868v0.618h-2.086v5.563H290.7V334.259L290.7,334.259z"/>
		<path fill="#FFFFFF" d="M296.109,333.641h0.696v2.782h3.554v-2.782h0.696v6.182h-0.696v-2.782h-3.554v2.782h-0.696V333.641z"/>
		<path fill="#FFFFFF" d="M304.146,333.641h4.481v0.618h-3.786v2.086h3.4v0.618h-3.4v2.164h3.863v0.618h-4.559V333.641z"/>
	</g>
</g>
<g>
	<g>
		<path fill="#FFFFFF" d="M205.236,370.036h1.159v4.56h5.95v-4.56h1.159v10.355h-1.159v-4.637h-5.95v4.637h-1.159V370.036z"/>
		<path fill="#FFFFFF" d="M219.841,370.036h7.496v1.082H221v3.555h5.641v1.082H221v3.632h6.414v1.082h-7.573V370.036z"/>
		<path fill="#FFFFFF" d="M236.918,369.959H238l4.714,10.432h-1.237l-1.236-2.705H234.6l-1.236,2.705h-1.236L236.918,369.959z
			 M239.854,376.604l-2.318-5.254l-2.395,5.254H239.854z"/>
		<path fill="#FFFFFF" d="M248.2,370.036h1.159v9.273h5.795v1.082H248.2V370.036z"/>
		<path fill="#FFFFFF" d="M263.423,371.118h-3.478v-1.082h8.191v1.082h-3.477v9.273H263.5v-9.273H263.423z"/>
		<path fill="#FFFFFF" d="M273.7,370.036h1.159v4.56h5.95v-4.56h1.159v10.355h-1.159v-4.637h-5.95v4.637H273.7V370.036z"/>
		<path fill="#FFFFFF" d="M296.109,370.036h1.082l6.491,8.269v-8.269h1.159v10.355h-0.927l-6.646-8.5v8.5h-1.159V370.036
			L296.109,370.036z"/>
		<path fill="#FFFFFF" d="M311.178,370.036h7.495v1.082h-6.337v3.555h5.642v1.082h-5.642v3.632h6.414v1.082h-7.572V370.036z"/>
		<path fill="#FFFFFF" d="M327.25,371.118h-3.478v-1.082h8.114v1.082h-3.478v9.273h-1.159V371.118z"/>
		<path fill="#FFFFFF" d="M336.678,370.036h1.236l2.936,8.655l2.859-8.655h0.928l2.858,8.655l2.937-8.655h1.236l-3.709,10.432
			h-1.004l-2.859-8.423l-2.859,8.423h-1.005L336.678,370.036z"/>
		<path fill="#FFFFFF" d="M356.072,375.291L356.072,375.291c0-2.859,2.164-5.409,5.255-5.409c3.168,0,5.255,2.473,5.255,5.332l0,0
			c0,2.859-2.164,5.332-5.255,5.332C358.159,380.545,356.072,378.15,356.072,375.291z M365.423,375.291L365.423,375.291
			c0-2.396-1.7-4.327-4.096-4.327s-4.019,1.854-4.019,4.25l0,0c0,2.318,1.7,4.25,4.096,4.25
			C363.723,379.464,365.423,377.609,365.423,375.291z"/>
		<path fill="#FFFFFF" d="M372.454,370.036h4.482c1.236,0,2.318,0.387,2.937,1.005c0.541,0.541,0.772,1.236,0.772,2.009l0,0
			c0,1.7-1.159,2.705-2.782,3.014l3.169,4.25h-1.469l-3.014-4.018h-2.937v4.018h-1.159V370.036z M376.859,375.368
			c1.545,0,2.627-0.772,2.627-2.164l0,0c0-1.236-1.005-2.009-2.627-2.009h-3.168v4.173H376.859z"/>
		<path fill="#FFFFFF" d="M386.519,370.036h1.159v6.182l5.949-6.182h1.546l-4.404,4.56l4.636,5.795h-1.468l-3.941-5.023l-2.24,2.241
			v2.782h-1.159v-10.355H386.519z"/>
	</g>
</g>
<g>
	<g>
		<g>
			<path fill="#FFFFFF" d="M203.15,345.309c0.464,0,2.009,0.077,3.246,0.077s2.396-0.077,3.014-0.077
				c0.077,0.077,0.077,0.695,0,0.773c-0.541,0.077-0.927,0.154-1.236,0.231c-0.618,0.155-0.773,0.464-0.773,1.468
				c-0.077,2.627,0,6.336,0,7.728c0.077,1.159,0.232,2.164,0.464,2.782c0.541,1.545,2.009,2.705,4.404,2.705
				c2.086,0,4.173-0.696,4.405-4.946c0.077-2.086,0.154-5.1,0.077-7.882c0-1.391-0.309-1.7-1.159-1.854
				c-0.386-0.077-0.772-0.154-1.313-0.231c-0.077-0.078-0.077-0.696,0-0.773c0.463,0,1.545,0.077,3.091,0.077
				c1.159,0,2.318-0.077,2.705-0.077c0.077,0.077,0.077,0.695,0,0.773c-0.386,0.077-0.773,0.154-1.082,0.309
				c-0.772,0.231-0.927,0.695-0.927,2.009c-0.154,5.564-0.077,7.573-0.541,9.427c-0.773,3.632-3.478,4.791-6.182,4.791
				c-4.018,0-5.795-1.932-6.182-4.945c-0.232-1.7-0.155-8.577-0.232-9.968c0-0.695-0.154-1.159-0.695-1.313
				c-0.309-0.078-0.85-0.155-1.314-0.309C202.996,346.004,203.073,345.386,203.15,345.309z"/>
			<path fill="#FFFFFF" d="M220.459,361.228c0.386-0.078,0.541-0.464,0.541-0.928c0.077-0.85,0.077-2.704,0.077-4.481
				c0-1.082,0-1.777-0.077-2.164c-0.077-0.386-0.386-0.618-1.313-1.004c-0.078-0.154,0-0.541,0.154-0.618
				c1.004-0.077,2.473-0.618,3.168-1.004c0,0,0.077,0.077,0.077,0.154c0,0.309-0.077,1.082-0.077,1.545
				c0,0.078,0.077,0.078,0.154,0.078c1.314-1.159,2.55-1.777,3.478-1.777c1.082,0,1.854,0.541,2.473,1.391
				c0.463,0.85,0.695,1.932,0.695,3.168c0,1.545,0,3.941,0.077,4.945c0,0.232,0.078,0.464,0.232,0.541
				c0.386,0.232,0.773,0.309,1.236,0.386c0.077,0.155,0.077,0.618-0.077,0.773c-0.386,0-1.159-0.078-2.473-0.078
				c-1.159,0-1.932,0.078-2.55,0.078c-0.077-0.078-0.077-0.696,0-0.773c0.464-0.077,0.927-0.154,1.082-0.154
				c0.386-0.155,0.463-0.387,0.463-1.082c0-1.545,0.078-4.25-0.077-5.254c-0.077-0.464-0.232-1.159-0.695-1.623
				c-0.386-0.387-0.85-0.619-1.545-0.619c-0.773,0-1.545,0.309-2.086,0.85c-0.155,0.155-0.232,0.387-0.232,1.005
				c0,1.932,0,4.559,0.077,5.795c0,0.618,0.155,0.85,0.464,0.927c0.309,0.077,0.695,0.154,1.082,0.231
				c0.078,0.078,0,0.618-0.077,0.773c-0.386,0-1.082-0.077-2.473-0.077c-1.236,0-2.164,0.077-2.473,0.077
				c-0.077-0.077-0.077-0.695,0-0.773C219.918,361.305,220.15,361.305,220.459,361.228z"/>
			<path fill="#FFFFFF" d="M236.764,362.155c-0.464,0-1.313-0.078-2.627-0.078c-1.082,0-2.086,0.078-2.473,0.078
				c-0.077-0.078-0.077-0.696,0-0.773c0.464-0.077,0.773-0.154,1.082-0.232c0.309-0.154,0.386-0.386,0.463-1.004
				c0.077-0.695,0.077-2.473,0.077-3.941c0-1.082,0-2.009,0-2.55c0-0.155,0-0.387-0.154-0.541c-0.309-0.309-0.695-0.464-1.236-0.618
				c-0.077-0.078,0-0.541,0.077-0.618c0.773,0,2.318-0.387,3.323-0.773c0,1.236,0,3.091,0,4.714c0,1.468,0,3.323,0,4.559
				c0,0.463,0.155,0.772,0.541,0.927c0.309,0.077,0.463,0.154,1.082,0.231C236.918,361.536,236.918,362.077,236.764,362.155z
				 M234.832,348.4c-0.155,0.078-1.005,0.155-1.159,0.078c-0.387-0.155-0.618-0.541-0.696-1.082c0-0.155,0-0.618,0.155-0.773
				c0.232-0.231,0.772-0.463,1.236-0.463c0.386,0,0.695,0.154,0.773,0.232c0.154,0.154,0.231,0.541,0.231,0.772
				C235.373,347.627,235.141,348.168,234.832,348.4z"/>
			<path fill="#FFFFFF" d="M237.15,351.259c0.464,0,1.391,0.077,2.473,0.077c1.082,0,1.932-0.077,2.473-0.077
				c0.154,0.077,0.154,0.618,0.077,0.772c-0.387,0.078-0.773,0.155-1.005,0.232c-0.231,0.077-0.231,0.309-0.231,0.386
				c0.309,1.082,2.086,6.104,2.241,6.491c0,0.077,0.077,0,0.155,0c0.541-1.391,1.623-4.405,2.009-5.641
				c0.232-0.85,0.078-1.082-0.231-1.236c-0.31-0.154-0.696-0.154-1.159-0.232c-0.078-0.154,0-0.695,0.077-0.772
				c0.309,0,1.313,0.077,2.318,0.077c0.927,0,1.777-0.077,2.086-0.077c0.078,0.077,0.078,0.695,0,0.772
				c-0.309,0.078-0.618,0.078-0.927,0.155c-0.463,0.154-0.695,0.541-1.004,1.236c-0.695,1.623-1.468,3.632-2.396,6.182
				c-0.463,1.159-0.695,1.932-0.85,2.55c-0.309,0-0.927,0-1.236,0c-0.231-0.696-0.463-1.468-0.772-2.396
				c-0.696-2.009-1.545-4.405-2.086-5.641c-0.541-1.468-0.618-1.7-1.236-1.932c-0.309-0.078-0.618-0.155-1.004-0.232
				C236.996,351.877,237.073,351.336,237.15,351.259z"/>
			<path fill="#FFFFFF" d="M256.777,359.604c0,0.155-0.077,0.618-0.155,0.695c-1.159,1.391-2.859,2.009-4.018,2.009
				c-1.313,0-2.318-0.463-3.091-1.313c-1.082-1.082-1.468-2.782-1.468-4.328c0-2.396,0.927-4.018,2.241-4.945
				c0.773-0.541,1.932-0.927,2.782-0.927c2.473,0,3.4,2.318,3.554,3.864c0,0.077,0.155,0.232,0.387,0.309
				c0,0.077-0.155,0.541-0.232,0.618c-1.082,0.309-4.559,0.541-6.646,0.618c-0.077,0-0.155,0.154-0.155,0.309
				c0.078,0.927,0.464,2.086,1.082,2.782c0.773,0.85,1.623,1.159,2.782,1.159c1.004,0,1.932-0.309,2.937-1.159
				C256.7,359.527,256.777,359.527,256.777,359.604z M249.977,355.123c0,0.078,0.078,0.155,0.155,0.155
				c0.85,0.077,3.786-0.077,4.327-0.155c0.077-0.077,0.155-0.154,0.155-0.231c-0.155-1.391-1.005-2.937-2.318-2.937
				C250.982,352.032,250.132,353.191,249.977,355.123z"/>
			<path fill="#FFFFFF" d="M265.354,351.568c0,0.077,0,0.309,0,0.463c-0.077,0.309-0.541,1.391-0.772,1.7
				c0,0-0.155,0.077-0.232,0.077c-0.464-0.463-1.082-0.85-1.623-0.85c-0.541,0-1.004,0.541-1.313,1.159
				c-0.077,0.155-0.232,0.541-0.232,0.927c0,1.854,0,4.636,0.078,5.177c0,0.464,0.154,0.695,0.541,0.85
				c0.464,0.155,1.082,0.232,1.623,0.309c0.077,0.154,0,0.695-0.077,0.773c-0.31,0-1.932-0.078-3.014-0.078
				c-0.773,0-2.086,0.078-2.55,0.078c-0.077-0.078-0.077-0.696,0-0.773c0.309,0,0.696-0.077,1.004-0.232
				c0.232-0.077,0.387-0.309,0.464-0.772c0.077-0.464,0.077-2.705,0.077-4.559c0-1.005,0-1.854,0-2.164
				c-0.077-0.387-0.231-0.696-1.391-1.159c0-0.155,0.077-0.541,0.154-0.618c0.927-0.078,2.396-0.541,3.091-1.005
				c0.078,0,0.155,0.078,0.155,0.078c0,0.386-0.077,1.545-0.077,2.086c0,0.078,0.077,0.078,0.154,0.078
				c0.464-0.618,1.004-1.314,1.623-1.7c0.386-0.309,0.85-0.541,1.313-0.541C264.813,350.873,265.2,351.182,265.354,351.568z"/>
			<path fill="#FFFFFF" d="M272.772,354.118c-0.077,0.077-0.618,0.155-0.695,0.077c-0.154-1.159-0.386-1.7-0.85-2.086
				c-0.309-0.232-0.772-0.31-1.236-0.31c-0.85,0-1.545,0.618-1.545,1.546c0,0.927,0.464,1.468,2.396,2.473
				c2.086,1.004,2.627,1.932,2.627,3.245c0,1.932-1.7,3.323-4.018,3.323c-0.928,0-2.086-0.231-2.705-0.541
				c-0.155-0.618-0.387-2.396-0.464-3.014c0.077-0.078,0.618-0.309,0.773-0.232c0.386,1.391,0.85,2.086,1.468,2.55
				c0.387,0.232,0.928,0.309,1.314,0.309c1.082,0,1.7-0.618,1.7-1.545c0-1.004-0.463-1.468-2.086-2.318
				c-2.086-1.082-2.782-2.086-2.782-3.478c0-1.7,1.236-3.168,3.787-3.168c0.618,0,1.236,0.077,1.623,0.154
				c0.387,0.077,0.85,0.155,1.005,0.155C272.927,352.109,272.85,353.036,272.772,354.118z"/>
			<path fill="#FFFFFF" d="M279.418,362.155c-0.463,0-1.313-0.078-2.627-0.078c-1.082,0-2.086,0.078-2.473,0.078
				c-0.078-0.078-0.078-0.696,0-0.773c0.463-0.077,0.772-0.154,1.082-0.232c0.309-0.154,0.386-0.386,0.464-1.004
				c0.077-0.695,0.077-2.473,0.077-3.941c0-1.082,0-2.009,0-2.55c0-0.155,0-0.387-0.155-0.541c-0.309-0.309-0.695-0.464-1.236-0.618
				c-0.077-0.078,0-0.541,0.078-0.618c0.772,0,2.318-0.387,3.323-0.773c0,1.236,0,3.091,0,4.714c0,1.468,0,3.323,0,4.559
				c0,0.463,0.154,0.772,0.541,0.927c0.309,0.077,0.464,0.154,1.082,0.231C279.573,361.536,279.496,362.077,279.418,362.155z
				 M277.409,348.4c-0.155,0.078-1.005,0.155-1.159,0.078c-0.386-0.155-0.618-0.541-0.695-1.082c0-0.155,0-0.618,0.154-0.773
				c0.232-0.231,0.773-0.463,1.236-0.463c0.387,0,0.696,0.154,0.773,0.232c0.154,0.154,0.232,0.541,0.232,0.772
				C277.95,347.627,277.795,348.168,277.409,348.4z"/>
			<path fill="#FFFFFF" d="M282.818,352.728c-0.078,0-0.078,0.077-0.078,0.154c0,1.313,0,3.632,0,5.023
				c0,1.082,0.078,1.623,0.155,1.932c0.232,0.695,0.85,1.082,1.468,1.082c0.695,0,1.082-0.154,1.545-0.463
				c0.077,0.077,0,0.695-0.077,0.85c-0.618,0.85-1.7,1.159-2.55,1.159c-1.004,0-1.777-0.464-2.241-1.314
				c-0.309-0.618-0.387-1.391-0.387-3.091c0-1.545,0-4.018,0-5.1c0-0.077-0.077-0.231-0.154-0.231c-0.309,0-1.004-0.078-1.391-0.078
				c0-0.154,0.155-0.772,0.232-0.927c0.386-0.077,1.004-0.154,1.236-0.309c0,0,0.077-0.077,0.077-0.154c0-0.387,0-1.855,0-2.318
				c0.387-0.232,1.314-0.927,1.623-1.236c0.154-0.077,0.386-0.077,0.463,0c-0.077,0.463-0.154,1.7-0.154,3.555
				c0,0.077,0.077,0.154,0.077,0.154c1.236,0,2.705-0.077,3.091-0.154c-0.077,0.386-0.231,1.082-0.231,1.468
				C285.136,352.728,283.823,352.728,282.818,352.728z"/>
			<path fill="#FFFFFF" d="M287.223,351.259c0.464,0,1.391,0.077,2.473,0.077c1.082,0,2.241-0.077,2.627-0.077
				c0.077,0.077,0.155,0.618,0.077,0.772c-0.386,0.078-0.772,0.155-0.927,0.232c-0.232,0.077-0.232,0.386-0.232,0.464
				c0.464,1.545,2.086,6.182,2.318,6.491h0.077c0.773-1.777,1.932-4.868,2.086-6.182c0.077-0.309,0.077-0.618-0.463-0.772
				c-0.232-0.077-0.696-0.154-1.159-0.232c-0.077-0.154,0-0.695,0.077-0.772c0.309,0,1.313,0.077,2.164,0.077
				c0.927,0,1.623-0.077,2.396-0.077c0.077,0.077,0.077,0.618,0,0.772c-0.386,0.078-0.695,0.078-0.927,0.232
				c-0.463,0.154-0.773,0.541-1.004,1.236c-1.777,5.023-3.864,9.736-6.027,13.754c-0.309,0.541-0.618,1.159-0.773,1.545
				l-0.154,0.078c-0.386-0.078-1.082-0.464-1.314-0.696c0-0.077-0.077-0.386,0-0.463c0.85-1.082,2.782-3.787,3.709-5.95
				c0,0-0.155-0.386-0.232-0.463c-0.541-1.545-1.623-4.559-2.473-6.568c-0.695-1.777-0.927-2.241-1.623-2.473
				c-0.231-0.077-0.463-0.077-0.85-0.154C287.068,351.877,287.146,351.336,287.223,351.259z"/>
		</g>
	</g>
	<g>
		<g>
			<path fill="#FFFFFF" d="M313.341,345.309c0.618,0,2.009,0.077,3.091,0.077c1.546,0,2.859-0.077,3.246-0.077
				c0.154,0.077,0.154,0.695,0,0.773c-0.541,0.077-1.005,0.231-1.314,0.309c-0.463,0.077-0.463,0.463-0.386,0.85
				c0.772,2.318,3.709,10.586,4.173,11.823c0,0,0.077,0,0.154,0c0.618-1.468,3.322-8.731,4.018-11.127
				c0.31-1.005,0.155-1.391-0.618-1.545c-0.386-0.078-0.772-0.155-1.391-0.309c-0.077-0.078,0-0.696,0.077-0.773
				c0.387,0,1.392,0.077,3.014,0.077c1.313,0,2.087-0.077,2.705-0.077c0.077,0.077,0.077,0.618,0,0.773
				c-0.464,0.077-0.773,0.154-1.159,0.309c-0.772,0.231-1.005,0.85-1.623,2.318c-0.772,1.932-2.473,6.491-3.786,9.814
				c-0.618,1.623-1.082,3.013-1.313,3.863c-0.387-0.077-1.159-0.077-1.546,0c-0.231-1.082-0.618-2.241-1.082-3.709
				c-1.313-3.632-2.858-8.114-3.632-10.123c-0.618-1.468-0.85-1.932-1.622-2.164c-0.31-0.078-0.695-0.155-1.236-0.232
				C313.109,346.004,313.187,345.386,313.341,345.309z"/>
			<path fill="#FFFFFF" d="M336.059,359.604c0,0.155-0.077,0.618-0.154,0.695c-1.159,1.391-2.859,2.009-4.018,2.009
				c-1.314,0-2.318-0.463-3.092-1.313c-1.081-1.082-1.468-2.782-1.468-4.328c0-2.396,0.928-4.018,2.241-4.945
				c0.772-0.541,1.932-0.927,2.781-0.927c2.473,0,3.4,2.318,3.555,3.864c0,0.077,0.154,0.232,0.387,0.309
				c0,0.077-0.154,0.541-0.232,0.618c-1.081,0.309-4.559,0.541-6.645,0.618c-0.078,0-0.155,0.154-0.155,0.309
				c0.077,0.927,0.464,2.086,1.082,2.782c0.772,0.85,1.623,1.159,2.782,1.159c1.004,0,1.932-0.309,2.936-1.159
				C335.981,359.527,336.059,359.527,336.059,359.604z M329.259,355.123c0,0.078,0.077,0.155,0.155,0.155
				c0.85,0.077,3.786-0.077,4.327-0.155c0.077-0.077,0.154-0.154,0.154-0.231c-0.154-1.391-1.005-2.937-2.318-2.937
				C330.264,352.032,329.414,353.191,329.259,355.123z"/>
			<path fill="#FFFFFF" d="M345.178,351.568c0,0.077,0,0.309,0,0.463c-0.078,0.309-0.541,1.391-0.773,1.7
				c0,0-0.154,0.077-0.231,0.077c-0.464-0.463-1.082-0.85-1.623-0.85s-1.004,0.541-1.313,1.159
				c-0.077,0.155-0.231,0.541-0.231,0.927c0,1.854,0,4.636,0.077,5.177c0,0.464,0.154,0.695,0.541,0.85
				c0.463,0.155,1.081,0.232,1.622,0.309c0.077,0.154,0,0.695-0.077,0.773c-0.309,0-1.932-0.078-3.014-0.078
				c-0.772,0-2.086,0.078-2.55,0.078c-0.077-0.078-0.077-0.696,0-0.773c0.31,0,0.695-0.077,1.005-0.232
				c0.231-0.077,0.386-0.309,0.463-0.772c0.078-0.464,0.078-2.705,0.078-4.559c0-1.005,0-1.854,0-2.164
				c-0.078-0.387-0.232-0.696-1.392-1.159c0-0.155,0.077-0.541,0.155-0.618c0.927-0.078,2.396-0.541,3.091-1.005
				c0.077,0,0.154,0.078,0.154,0.078c0,0.386-0.077,1.545-0.077,2.086c0,0.078,0.077,0.078,0.154,0.078
				c0.464-0.618,1.005-1.314,1.623-1.7c0.386-0.309,0.85-0.541,1.313-0.541S345.022,351.182,345.178,351.568z"/>
			<path fill="#FFFFFF" d="M347.341,361.15c0.464-0.154,0.541-0.463,0.541-1.082c0.077-1.468,0.077-4.328,0.077-6.104
				c0-0.155,0-0.541-0.231-0.773c-0.31-0.309-0.695-0.463-1.236-0.618c-0.077-0.077,0-0.618,0.077-0.618
				c1.159-0.155,2.473-0.618,3.168-1.004c0,0,0.077,0.077,0.077,0.154c0,0.155,0,1.159,0,1.545c0,0.078,0.077,0.078,0.154,0.078
				c1.469-1.237,2.705-1.7,3.478-1.7c1.236,0,2.087,0.772,2.627,1.777c0.078,0.077,0.155,0.077,0.155,0
				c1.313-1.082,2.627-1.854,3.632-1.854c1.932,0,3.168,1.545,3.168,4.404c0,1.468,0,4.018,0,5.1c0,0.155,0.077,0.463,0.231,0.541
				c0.31,0.154,0.696,0.232,1.314,0.386c0.077,0.077,0,0.695-0.155,0.773c-0.463,0-1.313-0.078-2.318-0.078
				c-1.313,0-1.932,0-2.55,0.078c-0.077-0.078-0.077-0.696,0-0.773c0.464-0.077,0.695-0.154,1.005-0.232
				c0.387-0.154,0.464-0.463,0.464-1.313c0-1.468,0.077-4.25-0.077-5.1c-0.155-0.927-0.696-2.086-2.241-2.086
				c-0.695,0-1.469,0.309-2.241,1.005c-0.077,0-0.077,0.154-0.077,0.154c0.077,0.541,0.077,1.159,0.077,1.932
				c0,1.468,0,3.632,0,4.714c0,0.386,0.154,0.541,0.387,0.618c0.309,0.077,0.618,0.155,1.082,0.232c0.077,0.077,0,0.695-0.078,0.772
				c-0.695,0-1.468-0.077-2.55-0.077c-0.772,0-1.932,0.077-2.396,0.077c-0.077-0.077-0.077-0.695,0-0.772
				c0.464-0.078,0.695-0.078,1.005-0.232c0.309-0.077,0.464-0.309,0.464-0.927c0.077-1.313,0.077-4.868-0.077-5.641
				c-0.155-0.85-0.618-2.009-2.164-2.009c-0.541,0-1.391,0.309-2.086,0.85c-0.155,0.154-0.31,0.386-0.31,0.618
				c0,1.777,0,5.1,0,6.336c0,0.387,0.077,0.696,0.541,0.773c0.231,0.077,0.541,0.077,1.005,0.155
				c0.077,0.077,0.077,0.695-0.077,0.772c-0.619,0-1.469-0.077-2.474-0.077c-1.313,0-1.854,0.077-2.473,0.077
				c-0.154-0.077-0.154-0.695,0-0.772C346.877,361.305,347.109,361.228,347.341,361.15z"/>
			<path fill="#FFFFFF" d="M375.391,356.437c0,2.086-0.772,3.941-2.396,4.945c-0.695,0.464-1.854,1.004-2.937,1.004
				c-3.709,0-5.1-3.014-5.1-5.795c0-2.164,0.928-3.555,2.241-4.559c0.927-0.618,2.163-1.082,3.322-1.082
				C373.613,350.95,375.391,353.423,375.391,356.437z M368.514,352.418c-0.695,0.464-1.313,1.468-1.313,3.478
				c0,3.168,1.468,5.409,3.555,5.409c0.541,0,1.159-0.155,1.545-0.541c0.695-0.695,1.005-1.777,1.005-3.4
				c0-3.168-1.391-5.255-3.555-5.255C369.286,352.032,368.822,352.187,368.514,352.418z"/>
			<path fill="#FFFFFF" d="M377.091,361.228c0.387-0.078,0.541-0.464,0.541-0.928c0.077-0.85,0.077-2.704,0.077-4.481
				c0-1.082,0-1.777-0.077-2.164c-0.077-0.386-0.387-0.618-1.313-1.004c-0.077-0.154,0-0.541,0.154-0.618
				c1.005-0.077,2.473-0.618,3.168-1.004c0,0,0.077,0.077,0.077,0.154c0,0.309-0.077,1.082-0.077,1.545
				c0,0.078,0.077,0.078,0.155,0.078c1.313-1.159,2.55-1.777,3.477-1.777c1.082,0,1.854,0.541,2.473,1.391
				c0.464,0.85,0.696,1.932,0.696,3.168c0,1.545,0,3.941,0.077,4.945c0,0.232,0.077,0.464,0.231,0.541
				c0.387,0.232,0.772,0.309,1.236,0.386c0.077,0.155,0.077,0.618-0.077,0.773c-0.387,0-1.159-0.078-2.473-0.078
				c-1.159,0-1.932,0.078-2.55,0.078c-0.077-0.078-0.077-0.696,0-0.773c0.463-0.077,0.927-0.154,1.081-0.154
				c0.387-0.155,0.464-0.387,0.464-1.082c0-1.545,0.077-4.25-0.077-5.254c-0.077-0.464-0.231-1.159-0.695-1.623
				c-0.387-0.387-0.85-0.619-1.546-0.619c-0.772,0-1.545,0.309-2.086,0.85c-0.154,0.155-0.231,0.387-0.231,1.005
				c0,1.932,0,4.559,0.077,5.795c0,0.618,0.154,0.85,0.463,0.927c0.31,0.077,0.696,0.154,1.082,0.231
				c0.077,0.078,0,0.618-0.077,0.773c-0.387,0-1.082-0.077-2.473-0.077c-1.236,0-2.164,0.077-2.473,0.077
				c-0.077-0.077-0.077-0.695,0-0.773C376.55,361.305,376.782,361.305,377.091,361.228z"/>
			<path fill="#FFFFFF" d="M392.005,352.728c-0.077,0-0.077,0.077-0.077,0.154c0,1.313,0,3.632,0,5.023
				c0,1.082,0.077,1.623,0.154,1.932c0.231,0.695,0.85,1.082,1.468,1.082c0.695,0,1.082-0.154,1.546-0.463
				c0.077,0.077,0,0.695-0.077,0.85c-0.618,0.85-1.7,1.159-2.551,1.159c-1.004,0-1.776-0.464-2.24-1.314
				c-0.31-0.618-0.387-1.391-0.387-3.091c0-1.545,0-4.018,0-5.1c0-0.077-0.077-0.231-0.154-0.231c-0.31,0-1.005-0.078-1.391-0.078
				c0-0.154,0.154-0.772,0.231-0.927c0.387-0.077,1.005-0.154,1.236-0.309c0,0,0.077-0.077,0.077-0.154c0-0.387,0-1.855,0-2.318
				c0.387-0.232,1.313-0.927,1.623-1.236c0.154-0.077,0.386-0.077,0.464,0c-0.078,0.463-0.155,1.7-0.155,3.555
				c0,0.077,0.077,0.154,0.077,0.154c1.236,0,2.705-0.077,3.092-0.154c-0.078,0.386-0.232,1.082-0.232,1.468
				C394.245,352.728,392.932,352.728,392.005,352.728z"/>
		</g>
	</g>
	<g>
		<path fill="#FFFFFF" d="M306.387,355.973c0,1.545-0.619,3.014-2.009,3.709c-0.541,0.309-1.314,0.541-1.855,0.541
			c-1.082,0-1.623-0.927-1.623-2.164s0.464-2.627,1.545-3.4c0.696-0.464,1.623-0.773,2.241-0.773
			C305.923,353.886,306.387,354.891,306.387,355.973z M303.373,359.45c0.927,0,1.391-1.7,1.391-3.246c0-0.85-0.155-1.7-0.927-1.7
			c-0.927,0-1.391,1.7-1.391,3.168C302.445,358.909,302.754,359.45,303.373,359.45z"/>
		<path fill="#FFFFFF" d="M307.468,354.659c0.078-0.232,0.464-0.541,0.541-0.541h0.618c0.077,0,0.077-0.077,0.077-0.077
			c0.31-1.545,0.928-2.473,2.01-3.323c0.541-0.386,1.159-0.695,1.622-0.695c0.387,0,0.696,0.077,0.696,0.309
			c0,0.231-0.464,0.85-0.773,1.082c-0.077,0-0.154,0.077-0.231,0.077c-0.231-0.231-0.541-0.463-0.772-0.463
			c-0.155,0-0.387,0.154-0.464,0.541c-0.231,0.618-0.31,1.391-0.464,2.473c0,0.077,0,0.077,0.077,0.077c0.541,0,1.082,0,1.392-0.077
			c0,0.077-0.078,0.309-0.078,0.386c-0.231,0.232-0.618,0.386-1.004,0.464c-0.155,0-0.31,0-0.464,0
			c-0.077,0-0.077,0.077-0.077,0.077c-0.231,1.7-0.541,3.632-0.851,5.177c-0.463,2.241-2.473,3.632-3.554,3.632
			c-0.618,0-0.927-0.309-0.927-0.618s0.155-0.773,0.309-1.082c0-0.077,0.155-0.077,0.155-0.154c0.463,0.541,0.927,0.927,1.391,0.927
			c0.387,0,0.541-0.386,0.772-1.391c0.387-2.164,0.851-5.332,1.082-6.491c0-0.077,0-0.077-0.077-0.077c-0.309,0-0.772,0-1.005-0.078
			C307.468,354.736,307.468,354.736,307.468,354.659z"/>
	</g>
</g>
</svg>
